<?xml version="1.0" standalone="no"?><!DOCTYPE svg PUBLIC "-//W3C//DTD SVG 1.1//EN" "http://www.w3.org/Graphics/SVG/1.1/DTD/svg11.dtd"><svg t="1739428461321" class="icon" viewBox="0 0 1024 1024" version="1.1" xmlns="http://www.w3.org/2000/svg" p-id="4281" xmlns:xlink="http://www.w3.org/1999/xlink" width="200" height="200"><path d="M472 980h-16a8 8 0 0 1 0-16h16a8 8 0 0 1 0 16z" fill="#263238" p-id="4282"></path><path d="M500 524m-384 0a384 384 0 1 0 768 0 384 384 0 1 0-768 0Z" fill="#FFD740" p-id="4283"></path><path d="M500 916c-216.144 0-392-175.856-392-392s175.856-392 392-392 392 175.856 392 392-175.856 392-392 392z m0-768c-207.328 0-376 168.672-376 376s168.672 376 376 376 376-168.672 376-376-168.672-376-376-376z" fill="#263238" p-id="4284"></path><path d="M500 524m-320 0a320 320 0 1 0 640 0 320 320 0 1 0-640 0Z" fill="#FFD740" p-id="4285"></path><path d="M500 852c-180.864 0-328-147.136-328-328s147.136-328 328-328 328 147.136 328 328-147.136 328-328 328z m0-640c-172.032 0-312 139.968-312 312s139.968 312 312 312 312-139.968 312-312-139.968-312-312-312z" fill="#263238" p-id="4286"></path><path d="M52 532a8 8 0 0 1-8-8c0-251.44 204.56-456 456-456a8 8 0 0 1 0 16c-242.624 0-440 197.376-440 440a8 8 0 0 1-8 8zM548 84h-16a8 8 0 0 1 0-16h16a8 8 0 0 1 0 16zM500 980a8 8 0 0 1 0-16c242.624 0 440-197.376 440-440a8 8 0 0 1 16 0c0 251.44-204.56 456-456 456zM860 92h-64a8 8 0 0 1 0-16h64a8 8 0 0 1 0 16z" fill="#263238" p-id="4287"></path><path d="M828 124a8 8 0 0 1-8-8v-64a8 8 0 0 1 16 0v64a8 8 0 0 1-8 8zM972 196h-64a8 8 0 0 1 0-16h64a8 8 0 0 1 0 16z" fill="#263238" p-id="4288"></path><path d="M940 228a8 8 0 0 1-8-8v-64a8 8 0 0 1 16 0v64a8 8 0 0 1-8 8z" fill="#263238" p-id="4289"></path><path d="M627.104 511.52l-0.064-0.032a98.976 98.976 0 0 0 16.944-55.488c0-50.368-37.488-92.064-86-98.896V308h-48v48H476v-48h-48v48h-80v64h32v210.208h-32v61.792h80v48h48v-48h34v48h48v-48h10A100.112 100.112 0 0 0 668 592a99.808 99.808 0 0 0-40.896-80.48zM544 420c19.856 0 36 16.144 36 36s-16.144 36-36 36h-100v-72H544z m24 208h-124v-72h124c19.856 0 36 16.144 36 36s-16.144 36-36 36z" fill="#FFFFFF" p-id="4290"></path><path d="M558 748h-48a8 8 0 0 1-8-8v-40H484v40a8 8 0 0 1-8 8h-48a8 8 0 0 1-8-8v-40h-72a8 8 0 0 1-8-8v-61.792a8 8 0 0 1 8-8h24V428h-24a8 8 0 0 1-8-8v-64a8 8 0 0 1 8-8h72v-40a8 8 0 0 1 8-8h48a8 8 0 0 1 8 8v40h18v-40a8 8 0 0 1 8-8h48a8 8 0 0 1 8 8v42.368c49.488 10.32 86 54.544 86 105.632a106.944 106.944 0 0 1-14.368 53.648A108.416 108.416 0 0 1 676 592a108.128 108.128 0 0 1-108 108h-2v40a8 8 0 0 1-8 8z m-40-16h32v-40a8 8 0 0 1 8-8h10c50.72 0 92-41.28 92-92a92.416 92.416 0 0 0-37.408-73.872 8 8 0 0 1-2.176-11.104c10.192-15.152 15.584-32.8 15.584-51.024 0-45.504-34.016-84.624-79.12-90.992a8 8 0 0 1-6.88-7.92V316h-32v40a8 8 0 0 1-8 8H476a8 8 0 0 1-8-8v-40h-32v40a8 8 0 0 1-8 8h-72v48h24a8 8 0 0 1 8 8v210.208a8 8 0 0 1-8 8h-24v45.792h72a8 8 0 0 1 8 8v40h32v-40a8 8 0 0 1 8-8h34a8 8 0 0 1 8 8v40z m50-96h-124a8 8 0 0 1-8-8v-72a8 8 0 0 1 8-8h124c24.272 0 44 19.728 44 44s-19.728 44-44 44z m-116-16h116c15.44 0 28-12.56 28-28s-12.56-28-28-28h-116v56z m92-120h-100a8 8 0 0 1-8-8v-72a8 8 0 0 1 8-8H544c24.272 0 44 19.728 44 44s-19.728 44-44 44z m-92-16H544c15.44 0 28-12.56 28-28s-12.56-28-28-28h-92v56z" fill="#263238" p-id="4291"></path></svg>